<?xml version="1.0" encoding="utf-8"?>
<!-- Generator: Adobe Illustrator 23.0.0, SVG Export Plug-In . SVG Version: 6.00 Build 0)  -->
<svg version="1.1" id="Layer_1" xmlns="http://www.w3.org/2000/svg" xmlns:xlink="http://www.w3.org/1999/xlink" x="0px" y="0px"
	 viewBox="0 0 377.46 104.17" style="enable-background:new 0 0 377.46 104.17;" xml:space="preserve">
<style type="text/css">
	.st0{fill:#FFFFFF;}
</style>
<g>
	<path class="st0" d="M377,24.76c-0.72,2.12-1.49,4.23-2.15,6.38c-7.24,23.34-14.46,46.68-21.69,70.02
		c-0.1,0.34-0.22,0.67-0.34,1.01h-25.98c-3.55-13.52-7.1-27.05-10.49-39.96c-3.62,12.89-7.41,26.37-11.22,39.92
		c-0.46,0.03-0.85,0.07-1.24,0.07c-7.87,0-15.72-0.02-23.58,0.03c-0.95,0-1.28-0.31-1.54-1.18c-7.4-25.33-14.83-50.66-22.25-75.99
		c-0.42-1.43,1.29-3.76,2.77-3.76c8.09,0,16.17,0.01,24.26-0.01c0.81-0.01,1.14,0.19,1.31,1.05c2.96,15.25,5.97,30.49,9.01,45.96
		c0.58-2.36,1.09-4.55,1.65-6.73c3.36-13.02,6.76-26.03,10.07-39.05c0.26-0.99,0.66-1.24,1.63-1.23c6.61,0.04,13.22,0.04,19.83,0
		c0.89,0,1.3,0.19,1.54,1.15c3.6,14.7,7.26,29.39,10.89,44.08c0.1,0.38,0.24,0.74,0.24,0.77c3.19-14.8,6.44-29.85,9.65-44.91
		c0.18-0.82,0.45-1.09,1.29-1.09c7.77,0.03,15.55,0.01,23.32,0.06c0.51,0,1.11,0.39,1.52,0.76c0.57,0.54,1.01,1.23,1.51,1.85V24.76z
		"/>
	<path class="st0" d="M0,23.5c0.05,0.01,0.12,0.03,0.13,0.01c1.51-2.17,3.76-1.95,5.99-1.87c1.29,0.05,2.58,0.01,4.09,0.01V20.2
		c0.01-4.51,0.02-9.02-0.01-13.53c-0.01-0.86,0.22-1.21,1.12-1.41c7.69-1.7,15.38-3.46,23.06-5.2c1.62-0.37,3.75,1.28,3.75,2.93
		c0.01,5.68,0,11.35,0,17.02v1.58c0.58,0.03,1.05,0.07,1.53,0.07c4.15,0,8.3,0,12.46,0c1.59,0,3.29,1.71,3.29,3.29
		c0.01,5.14,0.01,10.28,0,15.41c-0.01,1.53-1.68,3.22-3.23,3.22c-4.15,0.01-8.3,0-12.45,0h-1.59v1.59c0,8.17-0.04,16.34,0.04,24.52
		c0.02,2.08,0.27,4.19,0.73,6.22c0.68,3.02,2.58,4.44,5.69,4.41c2.26-0.02,4.53-0.23,6.8-0.42c1.21-0.11,3.28,1.52,3.32,2.81
		c0.09,2.76,0.13,5.53,0.16,8.3c0.04,3.12,0.01,6.25,0.08,9.37c0.02,0.81-0.27,1.15-1,1.44c-3.33,1.3-6.8,1.76-10.32,2.08
		c-0.69,0.06-1.39,0.18-2.07,0.28h-7.51c-1.47-0.28-2.96-0.5-4.42-0.84c-8.94-2.06-15.17-7.19-17.54-16.22
		c-0.98-3.72-1.65-7.61-1.74-11.44c-0.26-10.16-0.12-20.34-0.13-30.51c-0.01-0.51,0-1.02,0-1.58c-1.52,0-2.82-0.04-4.11,0.01
		c-2.22,0.08-4.47,0.3-5.98-1.87C0.12,41.7,0.05,41.73,0,41.73V23.5z"/>
	<path class="st0" d="M91.69,28.99c1.05-0.92,1.92-1.73,2.83-2.49c5.11-4.21,11.04-6.19,17.61-6.49c6.19-0.28,11.96,0.95,17.12,4.54
		c2.56,1.78,4.62,4.04,6.33,6.73c2.92-3.27,6.07-6.22,10-8.01c10.67-4.85,21.19-5.01,31.03,2.06c5.53,3.97,8.55,9.8,9.98,16.32
		c0.92,4.15,1.54,8.45,1.59,12.69c0.19,14.91,0.07,29.83,0.07,44.75c0,1.99-1.48,3.48-3.46,3.48h-20.9c-1.87,0-3.46-1.62-3.46-3.52
		c0-13.89,0-27.78-0.01-41.67c0-2.92-0.46-5.76-1.46-8.51c-2.62-7.17-10.85-6.52-14.38-2.48c-2.49,2.84-3.12,6.24-3.13,9.83
		c-0.02,14.29-0.01,28.58-0.01,42.87c0,2.01-1.45,3.48-3.43,3.48h-20.77c-2.03,0-3.47-1.42-3.47-3.42c0-13.76,0.04-27.51-0.04-41.26
		c-0.01-2.43-0.31-4.91-0.85-7.28c-1.04-4.49-3.49-6.75-7.23-7.16c-3.64-0.39-7.12,1.67-9.12,5.35c-1.14,2.09-1.62,4.3-1.61,6.67
		c0.02,14.52,0.01,29.03,0.01,43.54c0,2.01-1.55,3.55-3.55,3.55h-20.9c-1.78,0-3.34-1.55-3.34-3.31c0-17.59,0.06-35.19-0.02-52.79
		c-0.03-7.18-0.35-14.36-0.54-21.54c-0.04-1.49,1.6-3.27,3.11-3.27c6.66,0,13.31,0.02,19.96-0.02c0.94,0,1.31,0.2,1.37,1.23
		C91.14,24.85,91.44,26.82,91.69,28.99"/>
	<path class="st0" d="M222.55,21.66c0.16,2.97,0.32,5.79,0.51,8.99c7.01-9.17,15.98-12.2,26.95-10.01v2.88v20.23
		c0,1.53-1.91,3.26-3.44,3.05c-3.02-0.4-6.02-0.65-9.05-0.06c-6.52,1.28-10.74,6.08-10.8,12.74c-0.1,13.04-0.07,26.08-0.04,39.11
		c0,1.32-0.35,2.26-1.31,3.15c-0.64,0.59-1.26,0.84-2.12,0.83c-7.19-0.03-14.38-0.01-21.57-0.01c-1.96,0-3.44-1.5-3.44-3.49
		c0-17.6,0.06-35.19-0.02-52.78c-0.04-7.18-0.39-14.35-0.62-21.53c-0.03-0.99,1.68-3.08,2.68-3.09
		C207.63,21.65,214.99,21.66,222.55,21.66"/>
</g>
<g>
</g>
<g>
</g>
<g>
</g>
<g>
</g>
<g>
</g>
<g>
</g>
<g>
</g>
<g>
</g>
<g>
</g>
<g>
</g>
<g>
</g>
<g>
</g>
<g>
</g>
<g>
</g>
<g>
</g>
</svg>
